<?xml version="1.0" encoding="UTF-8"?>
<!DOCTYPE svg PUBLIC "-//W3C//DTD SVG 1.1//EN" "http://www.w3.org/Graphics/SVG/1.1/DTD/svg11.dtd">
<!-- Creator: CorelDRAW -->
<svg xmlns="http://www.w3.org/2000/svg" xml:space="preserve" width="6.72in" height="6.72in" style="shape-rendering:geometricPrecision; text-rendering:geometricPrecision; image-rendering:optimizeQuality; fill-rule:evenodd; clip-rule:evenodd"
viewBox="0 0 6.72 6.72"
 xmlns:xlink="http://www.w3.org/1999/xlink">
 <defs>
  <style type="text/css">
   <![CDATA[
    .fil1 {fill:white;fill-rule:nonzero}
    .fil0 {fill:url(#id0)}
   ]]>
  </style>
  <linearGradient id="id0" gradientUnits="userSpaceOnUse" x1="1.38953" y1="-0.0529488" x2="5.33047" y2="6.77295">
   <stop offset="0" style="stop-color:#444FF5"/>
   <stop offset="0.490196" style="stop-color:#21BFDB"/>
   <stop offset="1" style="stop-color:#1DABB6"/>
  </linearGradient>
 </defs>
 <g id="Layer_x0020_1">
  <metadata id="CorelCorpID_0Corel-Layer"/>
  <path class="fil0" d="M6.31603 1.65333c0.942567,1.63257 0.383209,3.72013 -1.24937,4.6627 -1.63257,0.942567 -3.72013,0.383209 -4.6627,-1.24937 -0.942567,-1.63257 -0.383209,-3.72013 1.24937,-4.6627 1.63257,-0.942567 3.72013,-0.383209 4.6627,1.24937z"/>
  <path class="fil1" d="M2.90903 2.02667l-0.402996 -0.549547 -0.0129646 -0.0378268c-0.004,-0.119992 0.117102,-0.185457 0.301925,-0.216846 0.153571,-0.0260866 0.35852,-0.0316024 0.565008,-0.0282165 0.206488,-0.00338583 0.411437,0.00212992 0.565008,0.0282165 0.184823,0.0313898 0.305925,0.0968543 0.301925,0.216846l-0.0129646 0.0378268 -0.402996 0.549547 -0.0203701 0.0277717 -0.034122 0 -0.792961 0 -0.034122 0 -0.0203701 -0.0277717zm-0.276799 -0.605953l0.365413 0.498291 0.724717 0 0.365413 -0.498291c-0.0174055,-0.0271339 -0.0869252,-0.0482953 -0.184984,-0.0649488 -0.145689,-0.0247441 -0.342634,-0.0299055 -0.541728,-0.0266142l-0.00211811 0c-0.199094,-0.00329134 -0.396039,0.00187008 -0.541728,0.0266142 -0.0980591,0.0166535 -0.167579,0.037815 -0.184984,0.0649488z"/>
  <path class="fil1" d="M3.76322 2.20377c0.357327,0.299957 0.852894,0.902378 1.10621,1.5086 0.123941,0.296598 0.190728,0.595512 0.157244,0.863654 -0.034437,0.275811 -0.172772,0.517165 -0.459689,0.68876 -0.263476,0.157579 -0.653571,0.254606 -1.2062,0.261874l-0.00158661 0c-0.552563,-0.00726772 -0.942626,-0.10428 -1.20611,-0.261839 -0.286937,-0.171583 -0.425291,-0.412941 -0.459752,-0.688752 -0.0334961,-0.268146 0.0332756,-0.567071 0.157205,-0.863681 0.253276,-0.606189 0.748764,-1.20858 1.1061,-1.50862l0.0433819 -0.0158701 0.719819 0 0.0433819 0.0158701zm0.981354 1.56045c-0.240256,-0.574969 -0.706047,-1.14628 -1.04944,-1.44089l-0.670409 0c-0.343394,0.294665 -0.809118,0.865961 -1.04933,1.4409 -0.115496,0.276425 -0.178063,0.552299 -0.147689,0.795429 0.0294173,0.235461 0.148165,0.441886 0.394681,0.589299 0.243906,0.14585 0.611252,0.235768 1.1376,0.24278 0.526409,-0.00701181 0.893787,-0.0969409 1.13769,-0.242815 0.246492,-0.147417 0.365217,-0.353843 0.394618,-0.589303 0.0303622,-0.243122 -0.0322205,-0.518988 -0.147724,-0.795406z"/>
  <path class="fil1" d="M3.3478 4.80967l0 -0.189087c-0.0947244,-0.0118425 -0.171508,-0.0330118 -0.230709,-0.0635079 -0.0592008,-0.0305 -0.110508,-0.0800157 -0.153567,-0.147827 -0.0430591,-0.0681732 -0.0681693,-0.151059 -0.0749882,-0.249012l0.190165 -0.0358819c0.0147087,0.101543 0.0405433,0.176173 0.0778583,0.223894 0.0531024,0.0674567 0.116969,0.104772 0.19124,0.112307l0 -0.602071c-0.0778583,-0.0147126 -0.157154,-0.0448504 -0.238602,-0.0904213 -0.0602795,-0.0337244 -0.106563,-0.0803701 -0.139217,-0.139933 -0.0326496,-0.0595591 -0.0487953,-0.127012 -0.0487953,-0.20272 0,-0.134555 0.0477205,-0.24363 0.142803,-0.32687 0.0638661,-0.0563307 0.158591,-0.0904213 0.283811,-0.102976l0 -0.0904173 0.111591 0 0 0.0904173c0.109791,0.0104055 0.197339,0.0426969 0.261567,0.0965197 0.0828819,0.0685276 0.132398,0.162894 0.149264,0.282736l-0.195547 0.0294173c-0.011126,-0.0742717 -0.0344449,-0.131319 -0.0699685,-0.170787 -0.0351654,-0.0394685 -0.0836024,-0.0656614 -0.145315,-0.0782205l0 0.545382c0.0950827,0.0240394 0.158232,0.0426969 0.189087,0.0559724 0.0588425,0.0258346 0.106925,0.0574094 0.143882,0.0943661 0.037315,0.037315 0.0660197,0.0814488 0.085752,0.132398 0.0200945,0.0513071 0.0301378,0.106563 0.0301378,0.166126 0,0.131319 -0.0419764,0.240398 -0.12522,0.327945 -0.0832441,0.0879055 -0.19124,0.134551 -0.323638,0.141012l0 0.19124 -0.111591 0zm0 -1.65659c-0.0735512,0.011122 -0.131681,0.0405433 -0.174016,0.0882638 -0.0423386,0.0477205 -0.0635118,0.104055 -0.0635118,0.169354 0,0.0642283 0.0179409,0.118406 0.0541811,0.161823 0.0362402,0.0434134 0.0972362,0.0782165 0.183346,0.104051l0 -0.523492zm0.111591 1.30748c0.0735551,-0.00897244 0.134193,-0.0409055 0.182272,-0.0954449 0.0480787,-0.0545354 0.072122,-0.12235 0.072122,-0.203083 0,-0.0685276 -0.0172283,-0.123783 -0.0509528,-0.165406 -0.0340866,-0.041622 -0.101902,-0.078937 -0.203441,-0.111949l0 0.575882z"/>
 </g>
</svg>
