<?xml version="1.0" encoding="UTF-8"?>
<!DOCTYPE svg PUBLIC "-//W3C//DTD SVG 1.1//EN" "http://www.w3.org/Graphics/SVG/1.1/DTD/svg11.dtd">
<!-- Creator: CorelDRAW -->
<svg xmlns="http://www.w3.org/2000/svg" xml:space="preserve" width="6.72in" height="6.72in" style="shape-rendering:geometricPrecision; text-rendering:geometricPrecision; image-rendering:optimizeQuality; fill-rule:evenodd; clip-rule:evenodd"
viewBox="0 0 6.72 6.72"
 xmlns:xlink="http://www.w3.org/1999/xlink">
 <defs>
  <style type="text/css">
   <![CDATA[
    .fil1 {fill:white;fill-rule:nonzero}
    .fil0 {fill:url(#id0)}
   ]]>
  </style>
  <linearGradient id="id0" gradientUnits="userSpaceOnUse" x1="1.38953" y1="-0.0529488" x2="5.33047" y2="6.77295">
   <stop offset="0" style="stop-color:#444FF5"/>
   <stop offset="0.490196" style="stop-color:#21BFDB"/>
   <stop offset="1" style="stop-color:#1DABB6"/>
  </linearGradient>
 </defs>
 <g id="Layer_x0020_1">
  <metadata id="CorelCorpID_0Corel-Layer"/>
  <path class="fil0" d="M6.31603 1.65333c0.942567,1.63257 0.383209,3.72013 -1.24937,4.6627 -1.63257,0.942567 -3.72013,0.383209 -4.6627,-1.24937 -0.942567,-1.63257 -0.383209,-3.72013 1.24937,-4.6627 1.63257,-0.942567 3.72013,-0.383209 4.6627,1.24937z"/>
  <path class="fil1" d="M2.60889 2.04723c0,-0.0350906 -0.030315,-0.0635394 -0.0677087,-0.0635394 -0.0373937,0 -0.0677087,0.0284488 -0.0677087,0.0635394l0 0.388248c0,0.0350906 0.030315,0.0635394 0.0677087,0.0635394 0.0373937,0 0.0677087,-0.0284488 0.0677087,-0.0635394l0 -0.388248z"/>
  <path class="fil1" d="M2.00678 1.32207l1.06878 0c0.0373937,0 0.0677087,0.0303189 0.0677087,0.0677087l0 0.66163c0,0.0373937 -0.030315,0.0677087 -0.0677087,0.0677087l-1.06878 0c-0.0373937,0 -0.0677087,-0.030315 -0.0677087,-0.0677087l0 -0.66163c0,-0.0373898 0.030315,-0.0677087 0.0677087,-0.0677087zm1.00107 0.135417l-0.933366 0 0 0.526213 0.933366 0 0 -0.526213z"/>
  <path class="fil1" d="M1.73096 2.39177l3.25808 0c0.0373937,0 0.0677087,0.030315 0.0677087,0.0677047l0 0.982587c0,0.0373898 -0.030315,0.0677087 -0.0677087,0.0677087l-3.25808 0c-0.0373937,0 -0.0677087,-0.0303189 -0.0677087,-0.0677087l0 -0.982587c0,-0.0373898 0.030315,-0.0677047 0.0677087,-0.0677047zm3.19037 0.135413l-3.12267 0 0 0.847169 3.12267 0 0 -0.847169z"/>
  <path class="fil1" d="M2.0154 2.66328l0.86574 0c0.0373937,0 0.0677087,0.030315 0.0677087,0.0677087l0 0.413717c0,0.0373937 -0.030315,0.0677087 -0.0677087,0.0677087l-0.86574 0c-0.0373937,0 -0.0677087,-0.030315 -0.0677087,-0.0677087l0 -0.413717c0,-0.0373937 0.030315,-0.0677087 0.0677087,-0.0677087zm0.798031 0.135413l-0.730323 0 0 0.278303 0.730323 0 0 -0.278303z"/>
  <path class="fil1" d="M3.34388 2.66328c-0.0373937,0 -0.0677087,0.030315 -0.0677087,0.0677087 0,0.0373937 0.030315,0.0677087 0.0677087,0.0677087l0.14098 0c0.0373898,0 0.0677047,-0.030315 0.0677047,-0.0677087 0,-0.0373937 -0.030315,-0.0677087 -0.0677047,-0.0677087l-0.14098 0z"/>
  <path class="fil1" d="M3.74779 2.66328c-0.0373937,0 -0.0677087,0.030315 -0.0677087,0.0677087 0,0.0373937 0.030315,0.0677087 0.0677087,0.0677087l0.140976 0c0.0373937,0 0.0677087,-0.030315 0.0677087,-0.0677087 0,-0.0373937 -0.030315,-0.0677087 -0.0677087,-0.0677087l-0.140976 0z"/>
  <path class="fil1" d="M4.1517 2.66328c-0.0373937,0 -0.0677087,0.030315 -0.0677087,0.0677087 0,0.0373937 0.030315,0.0677087 0.0677087,0.0677087l0.140976 0c0.0373937,0 0.0677087,-0.030315 0.0677087,-0.0677087 0,-0.0373937 -0.030315,-0.0677087 -0.0677087,-0.0677087l-0.140976 0z"/>
  <path class="fil1" d="M3.34388 2.89242c-0.0373937,0 -0.0677087,0.030315 -0.0677087,0.0677087 0,0.0373937 0.030315,0.0677087 0.0677087,0.0677087l0.14098 0c0.0373898,0 0.0677047,-0.030315 0.0677047,-0.0677087 0,-0.0373937 -0.030315,-0.0677087 -0.0677047,-0.0677087l-0.14098 0z"/>
  <path class="fil1" d="M3.74779 2.89242c-0.0373937,0 -0.0677087,0.030315 -0.0677087,0.0677087 0,0.0373937 0.030315,0.0677087 0.0677087,0.0677087l0.140976 0c0.0373937,0 0.0677087,-0.030315 0.0677087,-0.0677087 0,-0.0373937 -0.030315,-0.0677087 -0.0677087,-0.0677087l-0.140976 0z"/>
  <path class="fil1" d="M4.1517 2.89242c-0.0373937,0 -0.0677087,0.030315 -0.0677087,0.0677087 0,0.0373937 0.030315,0.0677087 0.0677087,0.0677087l0.140976 0c0.0373937,0 0.0677087,-0.030315 0.0677087,-0.0677087 0,-0.0373937 -0.030315,-0.0677087 -0.0677087,-0.0677087l-0.140976 0z"/>
  <path class="fil1" d="M3.34388 3.12156c-0.0373937,0 -0.0677087,0.030315 -0.0677087,0.0677087 0,0.0373937 0.030315,0.0677087 0.0677087,0.0677087l0.14098 0c0.0373898,0 0.0677047,-0.030315 0.0677047,-0.0677087 0,-0.0373937 -0.030315,-0.0677087 -0.0677047,-0.0677087l-0.14098 0z"/>
  <path class="fil1" d="M3.74779 3.12156c-0.0373937,0 -0.0677087,0.030315 -0.0677087,0.0677087 0,0.0373937 0.030315,0.0677087 0.0677087,0.0677087l0.140976 0c0.0373937,0 0.0677087,-0.030315 0.0677087,-0.0677087 0,-0.0373937 -0.030315,-0.0677087 -0.0677087,-0.0677087l-0.140976 0z"/>
  <path class="fil1" d="M4.1517 3.12156c-0.0373937,0 -0.0677087,0.030315 -0.0677087,0.0677087 0,0.0373937 0.030315,0.0677087 0.0677087,0.0677087l0.140976 0c0.0373937,0 0.0677087,-0.030315 0.0677087,-0.0677087 0,-0.0373937 -0.030315,-0.0677087 -0.0677087,-0.0677087l-0.140976 0z"/>
  <path class="fil1" d="M4.76227 2.69869c0,-0.0373937 -0.030315,-0.0677087 -0.0677087,-0.0677087 -0.0373937,0 -0.0677087,0.030315 -0.0677087,0.0677087l0 0.474386c0,0.0373898 0.030315,0.0677047 0.0677087,0.0677047 0.0373937,0 0.0677087,-0.030315 0.0677087,-0.0677047l0 -0.474386z"/>
  <path class="fil1" d="M1.26104 5.26251c-0.0373937,0 -0.0677087,0.030315 -0.0677087,0.0677087 0,0.0373898 0.030315,0.0677087 0.0677087,0.0677087l4.19792 0c0.0373937,0 0.0677087,-0.0303189 0.0677087,-0.0677087 0,-0.0373937 -0.030315,-0.0677087 -0.0677087,-0.0677087l-4.19792 0z"/>
  <path class="fil1" d="M1.8035 3.58874l3.11425 0c0.031748,0 0.0583858,0.0218504 0.0657087,0.0513268l0.436508 1.38613 0.000110236 -3.54331e-005c0.0112283,0.0356693 -0.00858268,0.073689 -0.044248,0.0849173 -0.00727559,0.00229528 -0.0146535,0.00329134 -0.021878,0.00312598l-3.98946 0c-0.0373898,0 -0.0677087,-0.030315 -0.0677087,-0.0677047 0,-0.00854724 0.00158661,-0.0167244 0.00448031,-0.0242559l0.436433 -1.3859 0.0645394 0.0201024 -0.0645827 -0.0203346c0.00923228,-0.0293307 0.0365827,-0.0479291 0.0658425,-0.047374zm3.06471 0.135417l-3.01643 0 -0.395098 1.25464 3.80662 0 -0.395098 -1.25464z"/>
 </g>
</svg>
