<?xml version="1.0" encoding="UTF-8"?>
<!DOCTYPE svg PUBLIC "-//W3C//DTD SVG 1.1//EN" "http://www.w3.org/Graphics/SVG/1.1/DTD/svg11.dtd">
<!-- Creator: CorelDRAW -->
<svg xmlns="http://www.w3.org/2000/svg" xml:space="preserve" width="6.72in" height="6.72in" style="shape-rendering:geometricPrecision; text-rendering:geometricPrecision; image-rendering:optimizeQuality; fill-rule:evenodd; clip-rule:evenodd"
viewBox="0 0 6.72 6.72"
 xmlns:xlink="http://www.w3.org/1999/xlink">
 <defs>
  <style type="text/css">
   <![CDATA[
    .fil1 {fill:white;fill-rule:nonzero}
    .fil0 {fill:url(#id0)}
   ]]>
  </style>
  <linearGradient id="id0" gradientUnits="userSpaceOnUse" x1="1.38953" y1="-0.0529488" x2="5.33047" y2="6.77295">
   <stop offset="0" style="stop-color:#444FF5"/>
   <stop offset="0.490196" style="stop-color:#21BFDB"/>
   <stop offset="1" style="stop-color:#1DABB6"/>
  </linearGradient>
 </defs>
 <g id="Layer_x0020_1">
  <metadata id="CorelCorpID_0Corel-Layer"/>
  <path class="fil0" d="M6.31603 1.65333c0.942567,1.63257 0.383209,3.72013 -1.24937,4.6627 -1.63257,0.942567 -3.72013,0.383209 -4.6627,-1.24937 -0.942567,-1.63257 -0.383209,-3.72013 1.24937,-4.6627 1.63257,-0.942567 3.72013,-0.383209 4.6627,1.24937z"/>
  <path class="fil1" d="M2.53662 1.29364c0.445461,0 0.848764,0.180567 1.1407,0.4725 0.291933,0.291933 0.4725,0.695232 0.4725,1.14069 0,0.0647441 -0.00391732,0.128957 -0.0114921,0.192398 -0.00757087,0.0634449 -0.019122,0.126689 -0.0343622,0.189437l-0.0733228 -0.0177402 0.0735512 0.0178622c-0.00897244,0.0369488 -0.0436575,0.0609134 -0.0804213,0.0575197l-0.000996063 7.87402e-006 -1.50742 0c-0.00800787,0 -0.0153504,0.00333858 -0.0207165,0.00870079 -0.0053622,0.00536614 -0.00870079,0.0127087 -0.00870079,0.0207205l0 1.06341c0,0.0417992 -0.0338898,0.075689 -0.075689,0.075689 -0.00335039,0 -0.00664567,-0.000216535 -0.00987795,-0.000641732 -0.414626,-0.0347598 -0.784673,-0.226248 -1.05063,-0.515039 -0.264677,-0.287406 -0.426319,-0.671043 -0.426319,-1.09232 0,-0.445461 0.180563,-0.84876 0.472496,-1.14069 0.291937,-0.291933 0.69524,-0.4725 1.1407,-0.4725zm1.03367 0.579528c-0.264528,-0.264528 -0.629992,-0.42815 -1.03367,-0.42815 -0.403677,0 -0.769138,0.163622 -1.03367,0.42815 -0.264531,0.264531 -0.428154,0.629992 -0.428154,1.03367 0,0.382024 0.146398,0.72972 0.386118,0.99002 0.224118,0.24337 0.529803,0.410449 0.873646,0.457929l0 -0.979043c0,-0.0497953 0.0203228,-0.0950157 0.0530512,-0.127752 0.0327323,-0.0327244 0.0779488,-0.0530472 0.127744,-0.0530472l1.45481 0c0.00733858,-0.036937 0.0133504,-0.0747677 0.0179685,-0.113449 0.00679921,-0.0569016 0.0103071,-0.115181 0.0103071,-0.174657 0,-0.403673 -0.163622,-0.769134 -0.428154,-1.03367z"/>
  <path class="fil1" d="M2.54892 1.29387c0.221575,0 0.41661,0.189252 0.552815,0.495224 0.128051,0.287642 0.207256,0.682988 0.207256,1.11783 0,0.0609055 -0.00174803,0.123413 -0.0051378,0.187173 -0.00334646,0.063122 -0.00831102,0.124689 -0.0147717,0.184504l-0.0750984 -0.00798031 0.0752559 0.00812598c-0.00422047,0.0390945 -0.0375079,0.068 -0.0760276,0.067563l-0.697854 0c-0.00800787,0 -0.0153504,0.00333858 -0.0207165,0.00870079 -0.0053622,0.00536614 -0.00870079,0.0127087 -0.00870079,0.0207205l0 1.03696c0,0.0418031 -0.0338898,0.075689 -0.075689,0.075689 -0.0133898,0 -0.0259685,-0.00348425 -0.036878,-0.00958268 -0.173807,-0.0830827 -0.323,-0.290866 -0.426429,-0.576248 -0.0988386,-0.27272 -0.158098,-0.619354 -0.158098,-0.995626 0,-0.434843 0.0792087,-0.830189 0.207256,-1.11783 0.136205,-0.305972 0.33124,-0.495224 0.552819,-0.495224zm0.415043 0.55672c-0.111484,-0.250441 -0.258646,-0.405343 -0.415043,-0.405343 -0.156402,0 -0.303559,0.154902 -0.415043,0.405343 -0.119646,0.268764 -0.193654,0.642118 -0.193654,1.05633 0,0.359224 0.0557126,0.68778 0.148638,0.944177 0.0666024,0.183783 0.150941,0.328673 0.245701,0.418126l0 -0.893496c0,-0.0497953 0.0203228,-0.0950157 0.0530512,-0.127752 0.0327323,-0.0327244 0.0779488,-0.0530472 0.127744,-0.0530472l0.630122 0c0.00311417,-0.0358937 0.00565354,-0.0720866 0.00758661,-0.108524 0.00299606,-0.0564528 0.00454724,-0.116303 0.00454724,-0.179484 0,-0.414217 -0.0740039,-0.787571 -0.19365,-1.05633z"/>
  <path class="fil1" d="M1.21843 2.11397c-0.0364094,-0.0204055 -0.0824803,-0.00743307 -0.10289,0.0289764 -0.0204094,0.0364094 -0.00743307,0.0824843 0.0289764,0.102894 0.00404724,0.00227165 1.39821,0.800307 2.78516,-0.000452756 0.0360866,-0.0209016 0.0483976,-0.0670984 0.0274961,-0.103185 -0.0209016,-0.0360866 -0.0670984,-0.0483976 -0.103185,-0.0274961 -1.31142,0.757146 -2.63172,0.00141339 -2.63556,-0.00073622z"/>
  <path class="fil1" d="M1.16536 3.60866c-0.0364094,0.020248 -0.0495157,0.066189 -0.0292677,0.102598 0.020248,0.0364094 0.066185,0.0495157 0.102594,0.0292677 0.00143701,-0.000795276 0.495012,-0.277638 1.18041,-0.319437 0.0416378,-0.00244882 0.0734055,-0.0381929 0.0709567,-0.0798307 -0.00244488,-0.0416378 -0.0381929,-0.0734055 -0.0798307,-0.0709567 -0.719787,0.0438937 -1.24333,0.337512 -1.24486,0.338358z"/>
  <path class="fil1" d="M0.999106 2.83114c-0.0417992,0 -0.075685,0.0338898 -0.075685,0.075689 0,0.0418031 0.0338858,0.075689 0.075685,0.075689l3.07502 0c0.0417992,0 0.075689,-0.0338858 0.075689,-0.075689 0,-0.0417992 -0.0338898,-0.075689 -0.075689,-0.075689l-3.07502 0z"/>
  <path class="fil1" d="M4.07305 3.35747l-1.53007 0c-0.0167283,0 -0.032,0.00690551 -0.0431142,0.0180157 -0.0111102,0.0111102 -0.0180118,0.0263819 -0.0180118,0.0431102l0 1.03573c0,0.0167283 0.00690157,0.032 0.0180118,0.0431102 0.0111142,0.0111142 0.0263858,0.0180157 0.0431142,0.0180157l0.116752 0c0.029689,-0.0401181 0.0674173,-0.0740709 0.110862,-0.0995276 0.0550866,-0.0322795 0.11885,-0.0507913 0.186508,-0.0507913 0.0676614,0 0.131425,0.0185118 0.186516,0.0507953 0.043437,0.0254528 0.0811693,0.0594094 0.110858,0.0995236l0.818579 0c0.0167283,0 0.032,-0.00690157 0.0431142,-0.0180157 0.0109331,-0.0109331 0.0177953,-0.0259055 0.0180079,-0.0423268l0 -0.70898 3.93701e-006 -0.00053937 0 -0.326992c0,-0.0167283 -0.00690157,-0.032 -0.0180118,-0.0431102 -0.0111142,-0.0111102 -0.0263858,-0.0180157 -0.0431142,-0.0180157zm0.271059 0.178728l0.29998 0c0.168563,0 0.321752,0.0689055 0.432756,0.179909 0.111004,0.111008 0.179909,0.264193 0.179909,0.432756l0 0.308024c0,0.057811 -0.0235945,0.110315 -0.0616063,0.148323 -0.0380079,0.0380118 -0.0905157,0.0616102 -0.148323,0.0616102l-0.0435512 0c-0.029622,0 -0.0552638,-0.0170197 -0.0676969,-0.0418071 -0.0190748,-0.0327559 -0.0462047,-0.0600354 -0.0785709,-0.079 -0.0320039,-0.0187559 -0.0696535,-0.0295118 -0.110232,-0.0295118 -0.0405748,0 -0.0782244,0.0107598 -0.110224,0.0295118 -0.033374,0.0195591 -0.061185,0.0479567 -0.0803346,0.0820748l-0.0659331 -0.0369567 0.0660039 0.0370433c-0.0140906,0.0251102 -0.0403661,0.0390709 -0.0672677,0.0386457l-0.144909 0c-0.0513583,0 -0.0985236,-0.0186181 -0.135059,-0.0494252 -0.0368858,0.0308189 -0.0843504,0.0494331 -0.136,0.0494331l-0.858197 0c-0.0269016,0.000417323 -0.0531772,-0.0135433 -0.0672638,-0.0386535l0.0660079 -0.0370354 -0.0659331 0.0369567c-0.0191457,-0.034122 -0.0469567,-0.0625197 -0.0803307,-0.0820787 -0.0320079,-0.018752 -0.0696575,-0.0295118 -0.110236,-0.0295118 -0.0405787,0 -0.0782283,0.0107559 -0.110232,0.0295079 -0.0323661,0.0189685 -0.0594961,0.046248 -0.0785669,0.0790039 -0.0124331,0.0247913 -0.0380748,0.041811 -0.0676969,0.041811l-0.157626 0c-0.0585197,0 -0.111669,-0.0238898 -0.150142,-0.0623622 -0.0384724,-0.0384764 -0.0623622,-0.091626 -0.0623622,-0.150142l0 -1.03573c0,-0.0585157 0.0238898,-0.111665 0.0623622,-0.150142 0.0384724,-0.0384724 0.091622,-0.0623622 0.150142,-0.0623622l1.53007 0c0.0585197,0 0.111669,0.0238898 0.150142,0.0623622 0.0384764,0.0384764 0.0623622,0.091626 0.0623622,0.150142l0 0.125937c0.0185984,-0.00542913 0.038248,-0.00833465 0.0585551,-0.00833465zm0.29998 0.151374l-0.29998 0c-0.0160236,0 -0.0306535,0.00661417 -0.0412992,0.0172638 -0.0104803,0.0104764 -0.0170512,0.0248189 -0.0172559,0.0405433l0 0.708945 -3.93701e-006 0.000547244 0 0.00201575c0,0.0160197 0.00661024,0.0306496 0.0172598,0.0412953 0.0106457,0.0106457 0.0252756,0.0172598 0.0412992,0.0172598l0.105303 0c0.0296929,-0.0401142 0.0674213,-0.0740709 0.110858,-0.0995236 0.0550827,-0.0322795 0.118846,-0.0507913 0.186504,-0.0507913 0.0676575,0 0.131425,0.0185118 0.186512,0.0507913 0.0434331,0.0254528 0.0811614,0.0594055 0.110854,0.0995236l0.00268504 0c0.0160197,0 0.0306457,-0.00661417 0.0412913,-0.0172598 0.0106496,-0.0106457 0.0172638,-0.0252756 0.0172638,-0.0412953l0 -0.308024c0,-0.126772 -0.0519213,-0.242083 -0.135563,-0.325728 -0.0836417,-0.0836417 -0.198957,-0.135563 -0.325728,-0.135563z"/>
  <path class="fil1" d="M4.57221 3.81983l0.125539 0c0.073189,0 0.139669,0.0298898 0.187815,0.0780315 0.0481417,0.0481457 0.0780315,0.11463 0.0780315,0.187815l0 0.125535c0,0.0418031 -0.0338898,0.075689 -0.075689,0.075689l-0.315697 0c-0.0417992,0 -0.075685,-0.0338858 -0.075685,-0.075689l0 -0.315693c0,-0.0417992 0.0338858,-0.075689 0.075685,-0.075689zm0.125539 0.151378l-0.0498504 0 0 0.164319 0.164319 0 0 -0.0498504c0,-0.0313976 -0.0129016,-0.0600039 -0.033685,-0.0807835 -0.0207795,-0.0207835 -0.0493819,-0.033685 -0.0807835,-0.033685z"/>
  <path class="fil1" d="M4.74678 4.36513c0.102055,0 0.194465,0.041378 0.261362,0.108264 0.0668858,0.0668858 0.108264,0.159295 0.108264,0.261358 0,0.102059 -0.041378,0.194472 -0.108264,0.261358 -0.0668976,0.0668898 -0.159307,0.108268 -0.261362,0.108268 -0.102059,0 -0.194472,-0.0413701 -0.261362,-0.108268 -0.0668858,-0.0668858 -0.108264,-0.159295 -0.108264,-0.261358 0,-0.102063 0.041378,-0.194472 0.108264,-0.261358 0.0668898,-0.0668937 0.159303,-0.108264 0.261362,-0.108264zm0.154331 0.215295c-0.0394921,-0.0394882 -0.0940591,-0.0639213 -0.154331,-0.0639213 -0.0602756,0 -0.114846,0.0244291 -0.154331,0.0639213 -0.0394882,0.0394843 -0.0639173,0.0940551 -0.0639173,0.154327 0,0.0602756 0.0244291,0.114843 0.0639173,0.154331 0.0394843,0.0394921 0.0940551,0.0639173 0.154331,0.0639173 0.0602717,0 0.114839,-0.0244291 0.154331,-0.0639173 0.0394882,-0.0394882 0.0639173,-0.0940591 0.0639173,-0.154331 0,-0.0602717 -0.0244291,-0.114843 -0.0639173,-0.154327z"/>
  <path class="fil1" d="M2.95709 4.36513c0.102063,0 0.194472,0.0413701 0.261362,0.108264 0.0668858,0.0668858 0.108264,0.159295 0.108264,0.261358 0,0.102063 -0.041378,0.194472 -0.108264,0.261358 -0.0668898,0.0668976 -0.159299,0.108268 -0.261362,0.108268 -0.102059,0 -0.194469,-0.041378 -0.261358,-0.108268 -0.0668898,-0.0668858 -0.108264,-0.159299 -0.108264,-0.261358 0,-0.102063 0.0413701,-0.194472 0.108264,-0.261358 0.0668898,-0.0668858 0.159299,-0.108264 0.261358,-0.108264zm0.154331 0.215295c-0.0394843,-0.0394921 -0.0940551,-0.0639213 -0.154331,-0.0639213 -0.0602717,0 -0.114839,0.0244331 -0.154327,0.0639213 -0.0394921,0.0394843 -0.0639173,0.0940551 -0.0639173,0.154327 0,0.0602717 0.0244252,0.114843 0.0639173,0.154331 0.0394882,0.0394882 0.0940551,0.0639173 0.154327,0.0639173 0.0602756,0 0.114846,-0.0244252 0.154331,-0.0639173 0.0394882,-0.0394882 0.0639173,-0.0940551 0.0639173,-0.154331 0,-0.0602717 -0.0244291,-0.114843 -0.0639173,-0.154327z"/>
 </g>
</svg>
