<?xml version="1.0" encoding="UTF-8"?>
<!DOCTYPE svg PUBLIC "-//W3C//DTD SVG 1.1//EN" "http://www.w3.org/Graphics/SVG/1.1/DTD/svg11.dtd">
<!-- Creator: CorelDRAW -->
<svg xmlns="http://www.w3.org/2000/svg" xml:space="preserve" width="6.72in" height="6.72in" style="shape-rendering:geometricPrecision; text-rendering:geometricPrecision; image-rendering:optimizeQuality; fill-rule:evenodd; clip-rule:evenodd"
viewBox="0 0 6.72 6.72"
 xmlns:xlink="http://www.w3.org/1999/xlink">
 <defs>
  <style type="text/css">
   <![CDATA[
    .fil1 {fill:white;fill-rule:nonzero}
    .fil0 {fill:url(#id0)}
   ]]>
  </style>
  <linearGradient id="id0" gradientUnits="userSpaceOnUse" x1="1.38953" y1="-0.0529488" x2="5.33047" y2="6.77295">
   <stop offset="0" style="stop-color:#444FF5"/>
   <stop offset="0.490196" style="stop-color:#21BFDB"/>
   <stop offset="1" style="stop-color:#1DABB6"/>
  </linearGradient>
 </defs>
 <g id="Layer_x0020_1">
  <metadata id="CorelCorpID_0Corel-Layer"/>
  <path class="fil0" d="M6.31603 1.65333c0.942567,1.63257 0.383209,3.72013 -1.24937,4.6627 -1.63257,0.942567 -3.72013,0.383209 -4.6627,-1.24937 -0.942567,-1.63257 -0.383209,-3.72013 1.24937,-4.6627 1.63257,-0.942567 3.72013,-0.383209 4.6627,1.24937z"/>
  <g id="_289838048">
   <path id="_289838816" class="fil1" d="M4.71387 1.5118l0.333862 0c0.0861496,0 0.164319,0.0371969 0.22085,0.0971142 0.055563,0.0588898 0.0900591,0.139858 0.0900591,0.228677l0 3.04482c0,0.0888189 -0.0344961,0.169787 -0.0900591,0.228677 -0.0565315,0.0599173 -0.134701,0.0971142 -0.22085,0.0971142l-0.333862 0c-0.0344921,0 -0.0624567,-0.0279646 -0.0624567,-0.0624567l0 -3.57149c0,-0.0344921 0.0279646,-0.0624567 0.0624567,-0.0624567zm0.333862 0.124913l-0.271406 0 0 3.44657 0.271406 0c0.0505,0 0.096563,-0.022063 0.130091,-0.0575945 0.0344921,-0.0365591 0.0559016,-0.0872598 0.0559016,-0.143283l0 -3.04482c0,-0.0560236 -0.0214094,-0.106724 -0.0559016,-0.143283 -0.0335276,-0.0355315 -0.0795906,-0.0575945 -0.130091,-0.0575945z"/>
   <path id="_289838792" class="fil1" d="M1.42382 1.45966l3.03772 0c0.0344921,0 0.0624567,0.0279646 0.0624567,0.0624567l0 3.64044c0,0.0251614 -0.014878,0.0468425 -0.036315,0.0567362 -0.0233701,0.0128307 -0.0484134,0.0229449 -0.074689,0.0299055 -0.0274331,0.00726772 -0.055878,0.0111457 -0.084811,0.0111457l-2.63341 0c-0.0917638,0 -0.175134,-0.0374843 -0.235528,-0.0978858 -0.0604016,-0.0603976 -0.0978898,-0.143768 -0.0978898,-0.235528l0 -3.40481c0,-0.0344921 0.0279646,-0.0624567 0.0624606,-0.0624567zm2.97526 0.124913l-2.91281 0 0 3.34235c0,0.0572756 0.0234724,0.10939 0.0612913,0.147209 0.037815,0.0378189 0.0899291,0.0612913 0.147209,0.0612913l2.63341 0c0.0186772,0 0.0364685,-0.00235039 0.0530984,-0.00675591 0.00604331,-0.00160236 0.0119843,-0.0034685 0.0178031,-0.00559055l0 -3.53851z"/>
   <path id="_289838600" class="fil1" d="M1.846 2.02791c-0.0344921,0 -0.0624567,0.0279646 -0.0624567,0.0624567 0,0.0344921 0.0279646,0.0624567 0.0624567,0.0624567l2.19335 0c0.0344961,0 0.0624606,-0.0279646 0.0624606,-0.0624567 0,-0.0344921 -0.0279646,-0.0624567 -0.0624606,-0.0624567l-2.19335 0z"/>
   <path id="_289838480" class="fil1" d="M1.846 2.64904c-0.0344921,0 -0.0624567,0.0279646 -0.0624567,0.0624606 0,0.0344921 0.0279646,0.0624567 0.0624567,0.0624567l2.19335 0c0.0344961,0 0.0624606,-0.0279646 0.0624606,-0.0624567 0,-0.0344961 -0.0279646,-0.0624606 -0.0624606,-0.0624606l-2.19335 0z"/>
   <path id="_289838552" class="fil1" d="M1.846 3.27016c-0.0344921,0 -0.0624567,0.0279646 -0.0624567,0.0624606 0,0.0344921 0.0279646,0.0624567 0.0624567,0.0624567l2.19335 0c0.0344961,0 0.0624606,-0.0279646 0.0624606,-0.0624567 0,-0.0344961 -0.0279646,-0.0624606 -0.0624606,-0.0624606l-2.19335 0z"/>
   <path id="_289838648" class="fil1" d="M1.846 3.27016c-0.0344921,0 -0.0624567,0.0279646 -0.0624567,0.0624606 0,0.0344921 0.0279646,0.0624567 0.0624567,0.0624567l2.19335 0c0.0344961,0 0.0624606,-0.0279646 0.0624606,-0.0624567 0,-0.0344961 -0.0279646,-0.0624606 -0.0624606,-0.0624606l-2.19335 0z"/>
   <path id="_289837544" class="fil1" d="M3.40607 3.89128c-0.0344921,0 -0.0624567,0.0279646 -0.0624567,0.0624567 0,0.0344961 0.0279646,0.0624606 0.0624567,0.0624606l0.633283 0c0.0344961,0 0.0624606,-0.0279646 0.0624606,-0.0624606 0,-0.0344921 -0.0279646,-0.0624567 -0.0624606,-0.0624567l-0.633283 0z"/>
   <path id="_289837736" class="fil1" d="M3.40607 4.20185c-0.0344921,0 -0.0624567,0.0279646 -0.0624567,0.0624567 0,0.0344921 0.0279646,0.0624567 0.0624567,0.0624567l0.633283 0c0.0344961,0 0.0624606,-0.0279646 0.0624606,-0.0624567 0,-0.0344921 -0.0279646,-0.0624567 -0.0624606,-0.0624567l-0.633283 0z"/>
   <path id="_289838192" class="fil1" d="M3.40607 4.51241c-0.0344921,0 -0.0624567,0.0279646 -0.0624567,0.0624567 0,0.0344921 0.0279646,0.0624567 0.0624567,0.0624567l0.633283 0c0.0344961,0 0.0624606,-0.0279646 0.0624606,-0.0624567 0,-0.0344921 -0.0279646,-0.0624567 -0.0624606,-0.0624567l-0.633283 0z"/>
   <path id="_289837616" class="fil1" d="M1.94064 3.84623l0.757 0c0.0344921,0 0.0624567,0.0279646 0.0624567,0.0624567l0 0.720953c0,0.0344921 -0.0279646,0.0624567 -0.0624567,0.0624567l-0.757 0c-0.0344921,0 -0.0624567,-0.0279646 -0.0624567,-0.0624567l0 -0.720953c0,-0.0344921 0.0279646,-0.0624567 0.0624567,-0.0624567zm0.694543 0.124913l-0.632087 0 0 0.596039 0.632087 0 0 -0.596039z"/>
  </g>
 </g>
</svg>
