<?xml version="1.0" encoding="UTF-8"?>
<!DOCTYPE svg PUBLIC "-//W3C//DTD SVG 1.1//EN" "http://www.w3.org/Graphics/SVG/1.1/DTD/svg11.dtd">
<!-- Creator: CorelDRAW -->
<svg xmlns="http://www.w3.org/2000/svg" xml:space="preserve" width="6.72in" height="6.72in" style="shape-rendering:geometricPrecision; text-rendering:geometricPrecision; image-rendering:optimizeQuality; fill-rule:evenodd; clip-rule:evenodd"
viewBox="0 0 6.72 6.72"
 xmlns:xlink="http://www.w3.org/1999/xlink">
 <defs>
  <style type="text/css">
   <![CDATA[
    .fil1 {fill:white;fill-rule:nonzero}
    .fil0 {fill:url(#id0)}
   ]]>
  </style>
  <linearGradient id="id0" gradientUnits="userSpaceOnUse" x1="1.38953" y1="-0.0529488" x2="5.33047" y2="6.77295">
   <stop offset="0" style="stop-color:#444FF5"/>
   <stop offset="0.490196" style="stop-color:#21BFDB"/>
   <stop offset="1" style="stop-color:#1DABB6"/>
  </linearGradient>
 </defs>
 <g id="Layer_x0020_1">
  <metadata id="CorelCorpID_0Corel-Layer"/>
  <path class="fil0" d="M6.31603 1.65333c0.942567,1.63257 0.383209,3.72013 -1.24937,4.6627 -1.63257,0.942567 -3.72013,0.383209 -4.6627,-1.24937 -0.942567,-1.63257 -0.383209,-3.72013 1.24937,-4.6627 1.63257,-0.942567 3.72013,-0.383209 4.6627,1.24937z"/>
  <path class="fil1" d="M1.87744 1.51346l0.808362 0c0.0359016,0 0.0650039,0.0291024 0.0650039,0.0650039l0 0.225106 1.21839 0 0 -0.225106c0,-0.0359016 0.0291024,-0.0650039 0.0650039,-0.0650039l0.808362 0c0.0358976,0 0.065,0.0291024 0.065,0.0650039l0 3.79661c0,0.0358976 -0.0291024,0.0650039 -0.065,0.0650039l-2.96513 0c-0.0358976,0 -0.065,-0.0291063 -0.065,-0.0650039l0 -3.79661c0,-0.0359016 0.0291024,-0.0650039 0.065,-0.0650039zm0.743362 0.130004l-0.678358 0 0 3.66661 2.83512 0 0 -3.66661 -0.678358 0 0 0.225106c0,0.0359016 -0.0291024,0.0650039 -0.065,0.0650039l-1.3484 0c-0.0358976,0 -0.065,-0.0291024 -0.065,-0.0650039l0 -0.225106z"/>
  <path class="fil1" d="M2.29719 2.5033c-0.0179488,-0.0309921 -0.057626,-0.041563 -0.0886181,-0.0236142 -0.0309882,0.0179488 -0.041563,0.057626 -0.0236142,0.0886181l0.15502 0.268496 -0.000133858 7.87402e-005c0.0179488,0.0310906 0.0577047,0.0417402 0.0887953,0.0237913 0.00551969,-0.00318898 0.0103976,-0.00706693 0.0145827,-0.0114606l0.511953 -0.511953c0.0253819,-0.0253819 0.0253819,-0.0665394 0,-0.0919173 -0.0253819,-0.0253819 -0.0665394,-0.0253819 -0.0919173,0l-0.453291 0.453287 -0.112776 -0.195327z"/>
  <path class="fil1" d="M2.29719 3.55467c-0.0179488,-0.0309921 -0.057626,-0.041563 -0.0886181,-0.0236142 -0.0309882,0.0179488 -0.041563,0.057626 -0.0236142,0.0886142l0.15502 0.2685 -0.000133858 7.48031e-005c0.0179488,0.0310906 0.0577047,0.0417441 0.0887953,0.0237953 0.00551969,-0.00318898 0.0103976,-0.00706693 0.0145827,-0.0114646l0.511953 -0.511949c0.0253819,-0.0253819 0.0253819,-0.0665394 0,-0.0919213 -0.0253819,-0.025378 -0.0665394,-0.025378 -0.0919173,0l-0.453291 0.453291 -0.112776 -0.195327z"/>
  <path class="fil1" d="M2.30135 4.4286l0.547591 0c0.0358976,0 0.065,0.0291024 0.065,0.065l0 0.547591c0,0.0358976 -0.0291024,0.065 -0.065,0.065l-0.547591 0c-0.0358976,0 -0.065,-0.0291024 -0.065,-0.065l0 -0.547591c0,-0.0358976 0.0291024,-0.065 0.065,-0.065zm0.482587 0.130004l-0.417583 0 0 0.417583 0.417583 0 0 -0.417583z"/>
  <path class="fil1" d="M3.47501 2.48283c-0.0358976,0 -0.0650039,0.0291024 -0.0650039,0.065 0,0.0359016 0.0291063,0.0650039 0.0650039,0.0650039l1.00391 0c0.0359016,0 0.0650039,-0.0291024 0.0650039,-0.0650039 0,-0.0358976 -0.0291024,-0.065 -0.0650039,-0.065l-1.00391 0z"/>
  <path class="fil1" d="M3.47501 3.5342c-0.0358976,0 -0.0650039,0.0291063 -0.0650039,0.0650039 0,0.0358976 0.0291063,0.0650039 0.0650039,0.0650039l1.00391 0c0.0359016,0 0.0650039,-0.0291063 0.0650039,-0.0650039 0,-0.0358976 -0.0291024,-0.0650039 -0.0650039,-0.0650039l-1.00391 0z"/>
  <path class="fil1" d="M3.47501 4.70239c-0.0358976,0 -0.0650039,0.0291063 -0.0650039,0.0650039 0,0.0358976 0.0291063,0.0650039 0.0650039,0.0650039l1.00391 0c0.0359016,0 0.0650039,-0.0291063 0.0650039,-0.0650039 0,-0.0358976 -0.0291024,-0.0650039 -0.0650039,-0.0650039l-1.00391 0z"/>
  <path class="fil1" d="M2.6858 1.27992l1.3484 0c0.0358976,0 0.065,0.0291063 0.065,0.0650039l0 0.523654c0,0.0359016 -0.0291024,0.0650039 -0.065,0.0650039l-1.3484 0c-0.0358976,0 -0.065,-0.0291024 -0.065,-0.0650039l0 -0.523654c0,-0.0358976 0.0291024,-0.0650039 0.065,-0.0650039zm1.2834 0.130008l-1.21839 0 0 0.39365 1.21839 0 0 -0.39365z"/>
 </g>
</svg>
