<?xml version="1.0" encoding="UTF-8"?>
<!DOCTYPE svg PUBLIC "-//W3C//DTD SVG 1.1//EN" "http://www.w3.org/Graphics/SVG/1.1/DTD/svg11.dtd">
<!-- Creator: CorelDRAW -->
<svg xmlns="http://www.w3.org/2000/svg" xml:space="preserve" width="6.72in" height="6.72in" style="shape-rendering:geometricPrecision; text-rendering:geometricPrecision; image-rendering:optimizeQuality; fill-rule:evenodd; clip-rule:evenodd"
viewBox="0 0 6.72 6.72"
 xmlns:xlink="http://www.w3.org/1999/xlink">
 <defs>
  <style type="text/css">
   <![CDATA[
    .fil1 {fill:white;fill-rule:nonzero}
    .fil0 {fill:url(#id0)}
   ]]>
  </style>
  <linearGradient id="id0" gradientUnits="userSpaceOnUse" x1="1.38953" y1="-0.0529488" x2="5.33047" y2="6.77295">
   <stop offset="0" style="stop-color:#444FF5"/>
   <stop offset="0.490196" style="stop-color:#21BFDB"/>
   <stop offset="1" style="stop-color:#1DABB6"/>
  </linearGradient>
 </defs>
 <g id="Layer_x0020_1">
  <metadata id="CorelCorpID_0Corel-Layer"/>
  <path class="fil0" d="M6.31603 1.65333c0.942567,1.63257 0.383209,3.72013 -1.24937,4.6627 -1.63257,0.942567 -3.72013,0.383209 -4.6627,-1.24937 -0.942567,-1.63257 -0.383209,-3.72013 1.24937,-4.6627 1.63257,-0.942567 3.72013,-0.383209 4.6627,1.24937z"/>
  <g id="_289832024">
   <path id="_289831928" class="fil1" d="M1.7333 2.64428l3.25341 0c0.0768504,0 0.146669,0.0313937 0.197236,0.0819606 0.0505709,0.0505709 0.0819646,0.12039 0.0819646,0.19724l0 2.32399c0,0.0768504 -0.0313937,0.146673 -0.0819646,0.19724 -0.0505669,0.0505669 -0.120386,0.0819646 -0.197236,0.0819646l-3.25341 0c-0.0768543,0 -0.146673,-0.0313976 -0.19724,-0.0819646 -0.0505709,-0.0505669 -0.0819646,-0.12039 -0.0819646,-0.19724l0 -2.32399c0,-0.0768504 0.0313937,-0.146669 0.0819646,-0.19724 0.0505669,-0.0505669 0.120386,-0.0819606 0.19724,-0.0819606zm3.25341 0.135413l-3.25341 0c-0.0394685,0 -0.0754055,0.0162008 -0.101496,0.0422913 -0.0260906,0.0260906 -0.0422913,0.0620276 -0.0422913,0.101496l0 2.32399c0,0.0394685 0.0162008,0.0754055 0.0422913,0.101496 0.0260906,0.0260906 0.0620276,0.0422913 0.101496,0.0422913l3.25341 0c0.0394685,0 0.0754016,-0.0162008 0.101492,-0.0422913 0.0260945,-0.0260906 0.0422913,-0.0620276 0.0422913,-0.101496l0 -2.32399c0,-0.0394685 -0.0161969,-0.0754055 -0.0422913,-0.101496 -0.0260906,-0.0260906 -0.0620236,-0.0422913 -0.101492,-0.0422913z"/>
   <path id="_289831544" class="fil1" d="M1.86717 2.68616c0,0.0373937 0.0303189,0.0677087 0.0677087,0.0677087 0.0373937,0 0.0677087,-0.030315 0.0677087,-0.0677087 0,-0.374846 0.151933,-0.714201 0.397575,-0.959839 0.245634,-0.245638 0.584992,-0.397575 0.959839,-0.397575 0.374843,0 0.714201,0.151937 0.959839,0.397575 0.245638,0.245638 0.397571,0.584992 0.397571,0.959839 0,0.0373937 0.0303189,0.0677087 0.0677087,0.0677087 0.0373937,0 0.0677087,-0.030315 0.0677087,-0.0677087 0,-0.412228 -0.167094,-0.785437 -0.437244,-1.05558 -0.270146,-0.27015 -0.643354,-0.437248 -1.05558,-0.437248 -0.412228,0 -0.785437,0.167098 -1.05558,0.437248 -0.270154,0.270146 -0.437248,0.643354 -0.437248,1.05558z"/>
   <path id="_289831520" class="fil1" d="M3.42771 4.1908c0,-0.0373937 -0.030315,-0.0677087 -0.0677087,-0.0677087 -0.0373937,0 -0.0677087,0.030315 -0.0677087,0.0677087l0 0.846811c0,0.0373937 0.030315,0.0677087 0.0677087,0.0677087 0.0373937,0 0.0677087,-0.030315 0.0677087,-0.0677087l0 -0.846811z"/>
  </g>
 </g>
</svg>
