<?xml version="1.0" encoding="UTF-8"?>
<!DOCTYPE svg PUBLIC "-//W3C//DTD SVG 1.1//EN" "http://www.w3.org/Graphics/SVG/1.1/DTD/svg11.dtd">
<!-- Creator: CorelDRAW -->
<svg xmlns="http://www.w3.org/2000/svg" xml:space="preserve" width="6.72in" height="6.72in" style="shape-rendering:geometricPrecision; text-rendering:geometricPrecision; image-rendering:optimizeQuality; fill-rule:evenodd; clip-rule:evenodd"
viewBox="0 0 6.72 6.72"
 xmlns:xlink="http://www.w3.org/1999/xlink">
 <defs>
  <style type="text/css">
   <![CDATA[
    .fil1 {fill:white;fill-rule:nonzero}
    .fil0 {fill:url(#id0)}
   ]]>
  </style>
  <linearGradient id="id0" gradientUnits="userSpaceOnUse" x1="1.38953" y1="-0.0529488" x2="5.33047" y2="6.77295">
   <stop offset="0" style="stop-color:#444FF5"/>
   <stop offset="0.490196" style="stop-color:#21BFDB"/>
   <stop offset="1" style="stop-color:#1DABB6"/>
  </linearGradient>
 </defs>
 <g id="Layer_x0020_1">
  <metadata id="CorelCorpID_0Corel-Layer"/>
  <path class="fil0" d="M6.31603 1.65333c0.942567,1.63257 0.383209,3.72013 -1.24937,4.6627 -1.63257,0.942567 -3.72013,0.383209 -4.6627,-1.24937 -0.942567,-1.63257 -0.383209,-3.72013 1.24937,-4.6627 1.63257,-0.942567 3.72013,-0.383209 4.6627,1.24937z"/>
  <path class="fil1" d="M2.2134 3.99882c0.0247874,-0.0247835 0.0247874,-0.0649764 0,-0.0897598 -0.0247835,-0.0247835 -0.0649764,-0.0247835 -0.0897598,0l-0.776299 0.776303c-0.0247874,0.0247835 -0.0247874,0.0649764 0,0.0897598 0.0247835,0.0247874 0.0649764,0.0247874 0.0897598,0l0.776299 -0.776303z"/>
  <path class="fil1" d="M2.58076 1.69492c0,-0.0350551 -0.0284213,-0.0634764 -0.0634764,-0.0634764 -0.0350551,0 -0.0634764,0.0284213 -0.0634764,0.0634764l0 0.87298c0,0.0350551 0.0284213,0.0634764 0.0634764,0.0634764 0.0350551,0 0.0634764,-0.0284213 0.0634764,-0.0634764l0 -0.87298zm0 2.46768c0,-0.0350551 -0.0284213,-0.0634764 -0.0634764,-0.0634764 -0.0350551,0 -0.0634764,0.0284213 -0.0634764,0.0634764l0 0.29526c0,0.0350551 0.0284213,0.0634764 0.0634764,0.0634764 0.0350551,0 0.0634764,-0.0284213 0.0634764,-0.0634764l0 -0.29526z"/>
  <path class="fil1" d="M3.04917 1.69492c0,-0.0350551 -0.0284213,-0.0634764 -0.0634764,-0.0634764 -0.0350551,0 -0.0634764,0.0284213 -0.0634764,0.0634764l0 0.869661c0,0.0350551 0.0284213,0.0634764 0.0634764,0.0634764 0.0350551,0 0.0634764,-0.0284213 0.0634764,-0.0634764l0 -0.869661zm0 2.471c0,-0.0350591 -0.0284213,-0.0634803 -0.0634764,-0.0634803 -0.0350551,0 -0.0634764,0.0284213 -0.0634764,0.0634803l0 0.291941c0,0.0350551 0.0284213,0.0634764 0.0634764,0.0634764 0.0350551,0 0.0634764,-0.0284213 0.0634764,-0.0634764l0 -0.291941z"/>
  <path class="fil1" d="M3.51759 1.69492c0,-0.0350551 -0.0284213,-0.0634764 -0.0634764,-0.0634764 -0.0350591,0 -0.0634803,0.0284213 -0.0634803,0.0634764l0 1.2146c0,0.0350551 0.0284213,0.0634764 0.0634803,0.0634764 0.0350551,0 0.0634764,-0.0284213 0.0634764,-0.0634764l0 -1.2146zm0 2.12606c0,-0.0350551 -0.0284213,-0.0634764 -0.0634764,-0.0634764 -0.0350591,0 -0.0634803,0.0284213 -0.0634803,0.0634764l0 0.636878c0,0.0350551 0.0284213,0.0634764 0.0634803,0.0634764 0.0350551,0 0.0634764,-0.0284213 0.0634764,-0.0634764l0 -0.636878z"/>
  <path class="fil1" d="M3.986 1.69492c0,-0.0350551 -0.0284173,-0.0634764 -0.0634764,-0.0634764 -0.0350551,0 -0.0634764,0.0284213 -0.0634764,0.0634764l0 2.76294c0,0.0350551 0.0284213,0.0634764 0.0634764,0.0634764 0.0350591,0 0.0634764,-0.0284213 0.0634764,-0.0634764l0 -2.76294z"/>
  <path class="fil1" d="M4.45442 1.69492c0,-0.0350551 -0.0284173,-0.0634764 -0.0634764,-0.0634764 -0.0350551,0 -0.0634764,0.0284213 -0.0634764,0.0634764l0 2.76294c0,0.0350551 0.0284213,0.0634764 0.0634764,0.0634764 0.0350591,0 0.0634764,-0.0284213 0.0634764,-0.0634764l0 -2.76294z"/>
  <path class="fil1" d="M4.92283 1.69492c0,-0.0350551 -0.0284213,-0.0634764 -0.0634764,-0.0634764 -0.0350551,0 -0.0634764,0.0284213 -0.0634764,0.0634764l0 2.76294c0,0.0350551 0.0284213,0.0634764 0.0634764,0.0634764 0.0350551,0 0.0634764,-0.0284213 0.0634764,-0.0634764l0 -2.76294z"/>
  <path class="fil1" d="M5.39125 1.69492c0,-0.0350551 -0.0284213,-0.0634764 -0.0634764,-0.0634764 -0.0350551,0 -0.0634764,0.0284213 -0.0634764,0.0634764l0 3.33016c0,0.0350551 0.0284213,0.0634764 0.0634764,0.0634764 0.0350551,0 0.0634764,-0.0284213 0.0634764,-0.0634764l0 -3.33016z"/>
  <path class="fil1" d="M3.39079 2.73167c0.174957,0.174961 0.262441,0.404272 0.262441,0.633575 0,0.229303 -0.0874843,0.458618 -0.262441,0.633575 -0.174961,0.174961 -0.404272,0.262441 -0.633575,0.262441 -0.229303,0 -0.458618,-0.0874803 -0.633575,-0.262441 -0.174957,-0.174957 -0.262441,-0.404272 -0.262441,-0.633575 0,-0.229303 0.0874843,-0.458614 0.262441,-0.633575 0.174957,-0.174957 0.404272,-0.262441 0.633575,-0.262441 0.229303,0 0.458614,0.0874843 0.633575,0.262441zm0.135488 0.633575c0,-0.196823 -0.0750866,-0.393654 -0.225248,-0.543811 -0.150165,-0.150165 -0.346988,-0.225252 -0.543815,-0.225252 -0.196823,0 -0.393654,0.0750906 -0.543815,0.225252 -0.150157,0.150157 -0.225248,0.346988 -0.225248,0.543811 0,0.196827 0.0750906,0.393654 0.225248,0.543815 0.150161,0.150161 0.346992,0.225248 0.543815,0.225248 0.196827,0 0.39365,-0.0750827 0.543815,-0.225248 0.150161,-0.150161 0.225248,-0.346988 0.225248,-0.543815z"/>
 </g>
</svg>
